<svg viewBox="0 0 64 64" xmlns="http://www.w3.org/2000/svg"><path d="m40 22v6h-6z" fill="#9f72fc"/><path d="m30 28h-6v-6z" fill="#9f72fc"/><path d="m41 31s0 8-9 8-9-8-9-8 2 4 9 4 9-4 9-4z" fill="#f5cd62"/><path d="m32 37c-5.4 0-7.551-2.877-8.414-5.181a4.8 4.8 0 0 1 -.586-.819s0 8 9 8 9-8 9-8a4.8 4.8 0 0 1 -.586.819c-.863 2.304-3.014 5.181-8.414 5.181z" fill="#ffb13b"/><path d="m63 52s-8 8-39 8c16 0 24-8 39-8z" fill="#805142"/><path d="m53 47c10 0 10 5 10 5-15 0-23 8-39 8s-23-6-23-6 0-7 10-7v1a2.006 2.006 0 0 0 2 2h38a2.006 2.006 0 0 0 2-2z" fill="#966857"/><path d="m48.88 24.61a24.974 24.974 0 0 1 -2.9 7.38l.02.01c5 3 5 12 5 12h-38c0-35 19-40 19-40 23 0 24 23 24 23a13.366 13.366 0 0 1 -7.12-2.39zm-16.88 14.39c9 0 9-8 9-8s-2 4-9 4-9-4-9-4 0 8 9 8zm8-11v-6l-6 6zm-16 0h6l-6-6z" fill="#966857"/><path d="m51.93 26.18a11.262 11.262 0 0 0 4.07.82s-1-23-24-23c0 0-.215.059-.584.2 17.338 1.9 20.104 18.146 20.514 21.98z" fill="#8d5c4d"/><path d="m46 32-.02-.01a26.433 26.433 0 0 0 2.455-5.622 16.431 16.431 0 0 1 -3.555-1.758 24.974 24.974 0 0 1 -2.9 7.38l.02.01c5 3 5 12 5 12h4s0-9-5-12z" fill="#8d5c4d"/><path d="m21 44h8v6h-8z" fill="#afb4c8"/><path d="m21 44v6h-8a2.006 2.006 0 0 1 -2-2v-4z" fill="#9f72fc"/><path d="m11 46v2a2.006 2.006 0 0 0 2 2h8v-2h-8a2.006 2.006 0 0 1 -2-2z" fill="#8457e5"/><path d="m53 47v1a2.006 2.006 0 0 1 -2 2h-22v-6h24z" fill="#9f72fc"/><path d="m51 48h-22v2h22a2.006 2.006 0 0 0 2-2v-2a2.006 2.006 0 0 1 -2 2z" fill="#8457e5"/><path d="m25 46h4v2h-4z" fill="#7e8596"/><path d="m18.2 38.068-2-.136a57.425 57.425 0 0 1 4.387-19.332l1.828.81a55.46 55.46 0 0 0 -4.215 18.658z" fill="#bf947a"/><path d="m23.347 17.457-1.78-.914c.362-.7.746-1.4 1.143-2.057l1.715 1.028c-.374.625-.737 1.278-1.078 1.943z" fill="#bf947a"/><path d="m64 52c0-.237-.118-5.641-10-5.983v-2.017a1 1 0 0 0 -1-1h-1.039c-.151-2.381-.912-8.367-4.664-11.3a26.669 26.669 0 0 0 2.241-5.522 13.556 13.556 0 0 0 6.462 1.822 1 1 0 0 0 1-1.043c-.012-.24-1.316-23.957-25-23.957a1 1 0 0 0 -.255.033c-.8.21-19.368 5.517-19.728 39.967h-1.017a1 1 0 0 0 -1 1v2.024c-9.881.47-10 7.898-10 7.976a1 1 0 0 0 .35.759c.296.255 7.466 6.241 23.65 6.241 31.032 0 39.354-7.941 39.706-8.292a1 1 0 0 0 .294-.708zm-42-7h6v1h-3v2h3v1h-6zm8 0h22v3a1 1 0 0 1 -1 1h-21zm2.146-40c19.032.084 22.237 16.42 22.754 20.932-6.937-.852-13.021-9.414-13.085-9.506l-1.638 1.147a33.25 33.25 0 0 0 7.574 7.5 27.307 27.307 0 0 1 -4.536 9.3l1.562 1.249a24.736 24.736 0 0 0 1.508-2.184c2.853 2.446 3.515 7.437 3.667 9.562h-35.936c.345-31.457 16.638-37.515 18.13-38zm-20.146 40h8v4h-7a1 1 0 0 1 -1-1zm-9.961 8.532c.194-1.354 1.34-5.146 7.964-5.5a3 3 0 0 0 2.997 2.968h38a3 3 0 0 0 3-2.981c5.256.191 7.062 1.884 7.681 3-6.921.216-12.468 2.1-17.842 3.936-5.839 1.989-11.875 4.045-19.839 4.045-13.34 0-20.309-4.295-21.961-5.468zm42.442 3.318c4.765-1.623 9.329-3.154 14.786-3.66-3.059 1.538-8.736 3.636-18.347 4.845 1.202-.388 2.389-.786 3.561-1.185z"/><path d="m23.9 30.553a1 1 0 0 0 -1.9.447c0 .09.114 9 10 9s10-8.91 10-9a1 1 0 0 0 -.763-.967 1.009 1.009 0 0 0 -1.127.511c-.074.142-1.885 3.456-8.11 3.456s-8.036-3.314-8.1-3.447zm8.1 5.447a13.176 13.176 0 0 0 7.186-1.832c-.93 1.855-2.921 3.832-7.186 3.832s-6.257-1.978-7.187-3.832a13.182 13.182 0 0 0 7.187 1.832z"/><path d="m23.617 21.076a1 1 0 0 0 -.617.924v6a1 1 0 0 0 1 1h6a1 1 0 0 0 .707-1.707l-6-6a1 1 0 0 0 -1.09-.217zm1.383 3.338 2.586 2.586h-2.586z"/><path d="m34 29h6a1 1 0 0 0 1-1v-6a1 1 0 0 0 -1.707-.707l-6 6a1 1 0 0 0 .707 1.707zm5-4.586v2.586h-2.586z"/><path d="m20.587 18.6a57.425 57.425 0 0 0 -4.387 19.332l2 .136a55.46 55.46 0 0 1 4.219-18.663z"/><path d="m24.425 15.514-1.715-1.028c-.4.661-.781 1.354-1.143 2.057l1.78.914c.341-.665.704-1.318 1.078-1.943z"/></svg>